<?xml version="1.0" encoding="UTF-8"?>
<svg id="Layer_2" data-name="Layer 2" xmlns="http://www.w3.org/2000/svg" viewBox="0 0 68.85 186.98">
  <defs>
    <style>
      .cls-1 {
        fill: #dae2cc;
      }
    </style>
  </defs>
  <g id="Layer_1-2" data-name="Layer 1">
    <g>
      <path class="cls-1" d="M55.93,51.06s0,.1-.02,.15c-2.83,14.15-9.02,24.21-13.55,31.56l-.29,.46s0,.02-.01,.02c-1.39,2.26-2.94,5.13-4.57,8.16-3.82,7.08-7.77,14.4-11.1,16.69-1.25,.86-2.88,1.67-4.76,2.61-5.31,2.65-12.59,6.28-20.3,15.02-.24,.28-.65,.34-.97,.15-.32-.19-.45-.59-.31-.93,.38-.95,9.41-23.26,20.75-27.91,10.48-4.3,19.32-13.88,20.01-14.64l.26-.42c4.46-7.25,10.58-17.18,13.35-31.06,.08-.41,.48-.68,.89-.6,.36,.07,.61,.39,.61,.74ZM3.26,121.47c6.8-6.7,13.23-9.91,17.69-12.12,1.83-.91,3.42-1.7,4.58-2.5,3.02-2.08,7.06-9.56,10.62-16.16,.61-1.13,1.21-2.23,1.79-3.3-3.75,3.44-9.75,8.25-16.56,11.05-7.93,3.25-14.95,16.32-18.12,23.03Z"/>
      <path class="cls-1" d="M53.58,59.96c0,.07,0,.14-.03,.21-1.51,5.24-1.86,8.81-2.49,15.3l-.14,1.43c-.6,6.14-1.5,9.93-3.45,18.22l-1.29,5.5c-.22,.63-4.47,12.43-11.27,20.96-1.21,3.83-4.94,13.66-9.15,20.77-4.16,7.03-22.14,23.39-22.91,24.09-.3,.27-.75,.26-1.04-.02-.29-.28-.31-.73-.06-1.04,.03-.04,2.9-3.51,3.99-8.41,1.32-5.93,4.96-11.17,7.02-13.77,2.81-3.55,10.87-11.89,18.66-19.96,.75-.77,1.47-1.6,2.17-2.47,.02-.04,.05-.07,.08-.1,6.68-8.38,10.99-20.36,11.04-20.49l1.27-5.42c1.94-8.23,2.83-11.98,3.42-18.02l.14-1.43c.62-6.36,.99-10.2,2.54-15.58,.12-.4,.54-.64,.94-.52,.33,.1,.55,.4,.55,.73ZM5.77,161.67c5.68-5.36,15.8-15.21,18.68-20.07,3.18-5.38,6.09-12.34,7.81-16.99-7.68,7.95-15.56,16.12-18.29,19.57-1.98,2.49-5.47,7.52-6.73,13.15-.36,1.62-.89,3.09-1.46,4.34Z"/>
      <path class="cls-1" d="M45.49,140.81c0,4.1-.1,13.28-.88,18.18-.89,5.59-1.95,18.02-.91,25.25,.19,1.04,.31,1.7,.34,1.84,.08,.4-.19,.8-.6,.88-.41,.08-.8-.17-.89-.58-.13-.59-.25-1.22-.35-1.89-.97-5.19-3.82-19.92-6.23-26.37-3.07-8.24-2.59-32.37-1.98-37.66,.05-.42,.43-.72,.84-.67,.42,.05,.72,.43,.67,.84-.6,5.21-1.09,28.93,1.9,36.95,1.49,3.99,3.1,10.88,4.37,16.88,.14-6.18,.82-12.5,1.34-15.74,.98-6.16,.85-19.78,.85-19.92-.97-11.32-7.81-20.42-7.88-20.51-.26-.34-.19-.81,.14-1.07,.33-.25,.81-.19,1.07,.14,.29,.38,7.18,9.54,8.19,21.36,0,.14,.01,.89,.01,2.05Z"/>
      <path class="cls-1" d="M68.85,154.22c0,.28-.16,.56-.43,.69-.37,.18-.82,.02-1.01-.35-.34-.68-.67-1.4-.98-2.16-2.66-5.82-9.98-21.81-11.94-25.88-2.26-4.69-6.14-13.77-6.64-21.76-.48-7.55-.75-14.51-.75-14.58-.04-.42,.31-.77,.73-.79,.42-.02,.77,.31,.79,.73,0,.07,.28,7.01,.75,14.54,.49,7.73,4.28,16.6,6.5,21.19,1.23,2.56,4.56,9.77,7.53,16.25-.6-2.99-1.04-6.19-1.31-9.52-.74-9.19-3.5-22.97-3.53-23.11-2.91-10.7-6.53-18.38-10.47-22.16-.3-.29-.31-.77-.02-1.07,.29-.3,.77-.31,1.07-.02,4.19,4.03,7.86,11.74,10.89,22.91,.04,.19,2.82,14.05,3.57,23.33,.6,7.43,2.08,14.18,4.23,19.31,.59,1.29,.95,2.08,.97,2.12,.05,.1,.07,.21,.07,.32Z"/>
      <g>
        <path class="cls-1" d="M52.55,1.53c0,.19-.04,.39-.12,.58-.06,.19-.19,.35-.31,.5-.29,.27-.68,.44-1.08,.44-.21,0-.39-.04-.58-.1-.19-.08-.37-.21-.5-.33-.14-.14-.25-.31-.33-.5-.15-.37-.17-.79,0-1.16,.08-.19,.19-.35,.33-.5,.12-.14,.31-.25,.5-.33S50.82,0,51.03,0c.4,0,.79,.17,1.08,.46,.12,.15,.25,.31,.31,.5,.08,.19,.12,.37,.12,.58Z"/>
        <path class="cls-1" d="M60.37,32.71c-.06,.83-.79,1.47-1.62,1.41h0c-.85-.06-1.47-.79-1.41-1.64h0c.06-.83,.79-1.45,1.64-1.39h0c.79,.04,1.39,.73,1.39,1.51h0v.1Zm-1.43-9.48c-.83,.1-1.6-.48-1.7-1.33h0c-.12-.83,.48-1.6,1.31-1.7h0c.83-.1,1.6,.48,1.7,1.31h0c.02,.08,.02,.14,.02,.21h0c0,.75-.56,1.41-1.33,1.51Zm-2.34-10.64c-.81,.27-1.68-.14-1.95-.93h0c-.27-.79,.12-1.66,.93-1.93h0c.79-.29,1.66,.12,1.93,.91h0c.06,.17,.1,.35,.1,.52h0c0,.62-.4,1.2-1.02,1.43Z"/>
        <path class="cls-1" d="M58.98,43.44c0,.39-.17,.79-.44,1.08-.29,.27-.68,.44-1.08,.44-.21,0-.39-.04-.58-.12-.19-.06-.35-.19-.5-.31-.41-.44-.56-1.1-.33-1.66,.08-.19,.19-.35,.33-.5,.15-.14,.31-.25,.5-.33,.19-.08,.37-.12,.58-.12,.39,0,.79,.17,1.08,.46,.15,.14,.25,.31,.33,.5,.06,.19,.1,.37,.1,.58Z"/>
      </g>
    </g>
  </g>
</svg>