<?xml version="1.0" encoding="UTF-8"?>
<svg id="Layer_2" data-name="Layer 2" xmlns="http://www.w3.org/2000/svg" viewBox="0 0 585.41 215.57">
  <defs>
    <style>
      .cls-1 {
        fill: #e9e8e3;
      }
    </style>
  </defs>
  <g id="Layer_1-2" data-name="Layer 1">
    <g>
      <path class="cls-1" d="M159.86,40.46c.16,0,.31,.02,.47,.05,44.29,8.86,75.8,28.25,98.8,42.42l1.46,.9s.05,.03,.07,.04c7.09,4.36,16.05,9.2,25.54,14.32,22.16,11.96,45.08,24.33,52.25,34.75,2.7,3.92,5.24,9.02,8.18,14.91,8.29,16.64,19.65,39.43,47.02,63.54,.87,.76,1.06,2.05,.46,3.03-.61,.99-1.84,1.41-2.91,.96-2.97-1.19-72.83-29.47-87.39-64.96-13.47-32.83-43.46-60.48-45.85-62.64l-1.31-.81c-22.7-13.97-53.78-33.11-97.24-41.8-1.29-.26-2.13-1.51-1.87-2.8,.23-1.13,1.22-1.92,2.33-1.92Zm220.46,164.9c-20.97-21.28-31.01-41.43-37.96-55.38-2.86-5.74-5.33-10.69-7.84-14.34-6.51-9.47-29.92-22.11-50.58-33.26-3.53-1.91-6.99-3.78-10.32-5.6,10.78,11.74,25.84,30.54,34.58,51.84,10.18,24.82,51.08,46.8,72.12,56.73Z"/>
      <path class="cls-1" d="M187.74,47.83c.22,0,.44,.03,.66,.09,16.4,4.73,27.59,5.82,47.91,7.8l4.48,.44c19.22,1.88,31.08,4.68,57.06,10.8l17.21,4.04c1.96,.68,38.92,13.98,65.64,35.27,11.98,3.79,42.77,15.47,65.04,28.65,22.02,13.03,73.24,69.33,75.41,71.72,.84,.93,.82,2.35-.05,3.25-.87,.91-2.29,.98-3.24,.17-.11-.09-10.99-9.09-26.33-12.5-18.56-4.13-34.97-15.54-43.1-21.97-11.11-8.79-37.23-34.03-62.49-58.43-2.42-2.34-5.02-4.6-7.74-6.79-.11-.08-.22-.16-.31-.25-26.25-20.92-63.73-34.42-64.15-34.57l-16.97-3.96c-25.77-6.08-37.52-8.85-56.43-10.7l-4.48-.43c-19.92-1.94-31.94-3.11-48.77-7.96-1.27-.36-1.99-1.69-1.63-2.95,.3-1.04,1.26-1.72,2.29-1.72ZM506.15,197.51c-16.77-17.78-47.63-49.48-62.85-58.49-16.84-9.97-38.65-19.07-53.2-24.44,24.9,24.06,50.46,48.73,61.26,57.28,7.81,6.18,23.54,17.14,41.18,21.06,5.07,1.13,9.66,2.8,13.6,4.59Z"/>
      <path class="cls-1" d="M440.86,73.16c12.83,0,41.57,.3,56.92,2.74,17.52,2.79,56.4,6.1,79.07,2.85,3.26-.61,5.33-.97,5.76-1.05,1.26-.24,2.49,.6,2.75,1.87,.26,1.27-.54,2.51-1.8,2.8-1.84,.42-3.81,.78-5.91,1.08-16.25,3.03-62.35,11.97-82.55,19.5-25.79,9.62-101.35,8.11-117.91,6.2-1.31-.15-2.24-1.33-2.09-2.64,.15-1.31,1.34-2.25,2.64-2.09,16.32,1.88,90.59,3.42,115.7-5.94,12.48-4.65,34.05-9.72,52.86-13.69-19.34-.45-39.14-2.58-49.27-4.19-19.3-3.07-61.94-2.66-62.36-2.66-35.43,3.03-63.94,24.45-64.22,24.67-1.05,.8-2.54,.59-3.34-.45-.8-1.05-.6-2.54,.45-3.34,1.2-.92,29.86-22.48,66.88-25.64,.43,0,2.79-.03,6.41-.03Z"/>
      <path class="cls-1" d="M482.84,0c.89,0,1.74,.5,2.15,1.35,.56,1.17,.08,2.58-1.08,3.16-2.14,1.07-4.39,2.1-6.75,3.08-18.22,8.33-68.27,31.24-81.03,37.39-14.7,7.09-43.1,19.22-68.13,20.8-23.62,1.49-45.42,2.35-45.64,2.36-1.32,.14-2.42-.97-2.47-2.29-.05-1.31,.97-2.42,2.29-2.47,.22,0,21.96-.87,45.52-2.35,24.22-1.53,51.97-13.4,66.36-20.34,8-3.86,30.6-14.28,50.86-23.58-9.36,1.88-19.38,3.27-29.8,4.11-28.78,2.32-71.91,10.97-72.34,11.06-33.5,9.11-57.55,20.45-69.39,32.77-.91,.95-2.42,.98-3.36,.07-.95-.91-.98-2.42-.07-3.36,12.62-13.13,36.75-24.6,71.73-34.11,.59-.12,44-8.83,73.05-11.17,23.26-1.87,44.39-6.52,60.47-13.23,4.05-1.85,6.51-2.97,6.64-3.03,.32-.15,.66-.22,.99-.22Z"/>
      <g>
        <path class="cls-1" d="M4.8,51.05c.59,0,1.23,.13,1.82,.39,.58,.2,1.1,.59,1.56,.98,.85,.91,1.36,2.14,1.36,3.38,0,.65-.13,1.23-.32,1.82-.26,.58-.65,1.17-1.04,1.56-.45,.45-.97,.78-1.56,1.04-1.17,.46-2.47,.52-3.64,0-.58-.26-1.1-.58-1.56-1.04-.45-.39-.78-.98-1.04-1.56C.13,57.03,0,56.44,0,55.8c0-1.24,.52-2.47,1.43-3.38,.46-.39,.98-.78,1.56-.98,.58-.26,1.17-.39,1.82-.39Z"/>
        <path class="cls-1" d="M102.42,26.57c2.6,.19,4.61,2.47,4.41,5.06h0c-.19,2.66-2.47,4.61-5.13,4.42h0c-2.6-.2-4.55-2.47-4.35-5.13h0c.13-2.47,2.27-4.35,4.74-4.35h.33Zm-29.68,4.48c.33,2.6-1.49,5-4.15,5.32h0c-2.6,.39-5-1.49-5.33-4.09h0c-.32-2.6,1.49-5,4.09-5.33h0c.26-.06,.45-.06,.65-.06h0c2.34,0,4.42,1.75,4.74,4.16Zm-33.32,7.34c.84,2.53-.45,5.26-2.92,6.1h0c-2.47,.84-5.2-.39-6.04-2.92h0c-.91-2.47,.39-5.19,2.86-6.04h0c.52-.2,1.1-.33,1.62-.33h0c1.95,0,3.77,1.24,4.48,3.18Z"/>
        <path class="cls-1" d="M136,30.92c1.23,0,2.47,.52,3.38,1.36,.84,.91,1.36,2.14,1.36,3.38,0,.65-.13,1.23-.39,1.82-.19,.59-.58,1.1-.97,1.56-1.36,1.3-3.44,1.75-5.19,1.04-.59-.26-1.11-.58-1.56-1.04-.45-.46-.78-.97-1.04-1.56-.26-.58-.39-1.17-.39-1.82,0-1.23,.52-2.47,1.43-3.38,.45-.46,.97-.78,1.56-1.04,.58-.19,1.17-.32,1.82-.32Z"/>
      </g>
    </g>
  </g>
</svg>