<?xml version="1.0" encoding="UTF-8"?>
<svg id="Layer_2" data-name="Layer 2" xmlns="http://www.w3.org/2000/svg" viewBox="0 0 108.01 67.18">
  <defs>
    <style>
      .cls-1 {
        fill: #08201e;
      }
    </style>
  </defs>
  <g id="Layer_1-2" data-name="Layer 1">
    <g>
      <path class="cls-1" d="M43.04,0H6.96C3.12,0,0,3.24,0,7.24V59.93c0,4,3.12,7.24,6.96,7.24H41.56l2.04-5.38c-12.27-2.87-21.47-14.72-21.47-28.9,0-13.24,8.02-24.45,19.07-28.22l1.84-4.67"/>
      <path class="cls-1" d="M58.08,62.34c15.04,0,27.24-12.93,27.24-28.88S73.12,4.58,58.08,4.58c-.56,0-1.12,.02-1.67,.05l1.48-4.63h43.16c3.84,0,6.95,3.24,6.95,7.24V59.93c0,4-3.11,7.24-6.95,7.24H56.4l1.67-4.83"/>
      <path class="cls-1" d="M64.54,43.36h-3.64l6.83-19.18h3.64l-6.83,19.18m9.13-23.1h-11.78l-16.71,46.91h7.24l7.12-19.99h7.24c1.6,0,3.62-.48,4.46-2.87,.83-2.39,5.36-14.91,6.61-18.67,1.25-3.76-1.74-5.38-4.18-5.38Z"/>
      <path class="cls-1" d="M55.46,26.25l-7.13,19.99h-7.17l7.84-22h-3.69l-7.84,22h-7.24L46.7,.02h7.24l-7.26,20.35h4.88c3.51,0,4.95,2.75,3.9,5.87"/>
    </g>
  </g>
</svg>