<?xml version="1.0" encoding="UTF-8"?>
<svg id="Layer_2" data-name="Layer 2" xmlns="http://www.w3.org/2000/svg" viewBox="0 0 350 72.99">
  <defs>
    <style>
      .cls-1 {
        fill: #08201e;
      }
    </style>
  </defs>
  <g id="Layer_1-2" data-name="Layer 1">
    <g>
      <path class="cls-1" d="M95.14,39.15s-.07,0-.1-.01c-9.9-1.98-16.95-6.32-22.09-9.48l-.33-.2s-.01,0-.02,0c-1.58-.97-3.59-2.06-5.71-3.2-4.96-2.67-10.08-5.44-11.68-7.77-.6-.88-1.17-2.02-1.83-3.33-1.85-3.72-4.39-8.82-10.51-14.21-.19-.17-.24-.46-.1-.68,.14-.22,.41-.31,.65-.22,.66,.27,16.28,6.59,19.54,14.52,3.01,7.34,9.72,13.52,10.25,14.01l.29,.18c5.07,3.12,12.02,7.4,21.74,9.35,.29,.06,.48,.34,.42,.63-.05,.25-.27,.43-.52,.43ZM45.85,2.28c4.69,4.76,6.93,9.26,8.49,12.38,.64,1.28,1.19,2.39,1.75,3.21,1.46,2.12,6.69,4.94,11.31,7.44,.79,.43,1.56,.84,2.31,1.25-2.41-2.62-5.78-6.83-7.73-11.59-2.28-5.55-11.42-10.46-16.12-12.68Z"/>
      <path class="cls-1" d="M88.91,37.5s-.1,0-.15-.02c-3.67-1.06-6.17-1.3-10.71-1.74l-1-.1c-4.3-.42-6.95-1.05-12.76-2.42l-3.85-.9c-.44-.15-8.7-3.13-14.68-7.89-2.68-.85-9.56-3.46-14.54-6.41C26.31,15.12,14.86,2.53,14.37,1.99c-.19-.21-.18-.52,.01-.73,.19-.2,.51-.22,.73-.04,.02,.02,2.46,2.03,5.89,2.79,4.15,.92,7.82,3.47,9.64,4.91,2.48,1.97,8.32,7.61,13.97,13.06,.54,.52,1.12,1.03,1.73,1.52,.02,.02,.05,.04,.07,.06,5.87,4.68,14.25,7.7,14.34,7.73l3.79,.89c5.76,1.36,8.39,1.98,12.62,2.39l1,.1c4.45,.43,7.14,.69,10.9,1.78,.28,.08,.45,.38,.36,.66-.07,.23-.28,.39-.51,.39ZM17.72,4.04c3.75,3.98,10.65,11.06,14.05,13.08,3.77,2.23,8.64,4.26,11.89,5.46-5.57-5.38-11.28-10.89-13.7-12.81-1.75-1.38-5.26-3.83-9.21-4.71-1.13-.25-2.16-.63-3.04-1.03Z"/>
      <path class="cls-1" d="M32.32,31.84c-2.87,0-9.29-.07-12.73-.61-3.92-.62-12.61-1.36-17.68-.64-.73,.14-1.19,.22-1.29,.23-.28,.05-.56-.13-.61-.42-.06-.28,.12-.56,.4-.63,.41-.09,.85-.17,1.32-.24,3.63-.68,13.94-2.68,18.46-4.36,5.77-2.15,22.66-1.81,26.36-1.39,.29,.03,.5,.3,.47,.59-.03,.29-.3,.5-.59,.47-3.65-.42-20.25-.77-25.87,1.33-2.79,1.04-7.61,2.17-11.82,3.06,4.32,.1,8.75,.58,11.02,.94,4.32,.69,13.85,.59,13.94,.59,7.92-.68,14.3-5.47,14.36-5.52,.23-.18,.57-.13,.75,.1,.18,.23,.13,.57-.1,.75-.27,.2-6.68,5.03-14.95,5.73-.1,0-.62,0-1.43,0Z"/>
      <path class="cls-1" d="M22.93,48.2c-.2,0-.39-.11-.48-.3-.12-.26-.02-.58,.24-.71,.48-.24,.98-.47,1.51-.69,4.07-1.86,15.26-6.98,18.12-8.36,3.29-1.59,9.64-4.3,15.23-4.65,5.28-.33,10.15-.53,10.2-.53,.29-.03,.54,.22,.55,.51,.01,.29-.22,.54-.51,.55-.05,0-4.91,.19-10.18,.53-5.41,.34-11.62,3-14.84,4.55-1.79,.86-6.84,3.19-11.37,5.27,2.09-.42,4.33-.73,6.66-.92,6.43-.52,16.08-2.45,16.17-2.47,7.49-2.04,12.87-4.57,15.52-7.33,.2-.21,.54-.22,.75-.01,.21,.2,.22,.54,.01,.75-2.82,2.94-8.22,5.5-16.04,7.63-.13,.03-9.84,1.97-16.33,2.5-5.2,.42-9.93,1.46-13.52,2.96-.9,.41-1.46,.67-1.49,.68-.07,.03-.15,.05-.22,.05Z"/>
      <g>
        <path class="cls-1" d="M143.82,50.26c-1.6,0-2.4-.79-2.4-2.37,0-1.81,1.59-5.6,4.76-11.38,3.18-5.77,4.76-9.25,4.76-10.43,0-.42-.13-.73-.39-.93-.26-.2-.56-.3-.9-.3-3.51,0-8.52,2.79-15.02,8.36-.15,.11-.28,.16-.41,.16-.15,0-.29-.1-.43-.28-.14-.19-.21-.36-.21-.5,0-.1,.07-.22,.22-.35,1.83-1.75,4.36-3.64,7.61-5.68,3.22-2.02,5.94-3.03,8.17-3.03,1.77,0,2.65,.83,2.65,2.49,0,1.45-1.58,5.02-4.75,10.7-3.17,5.68-4.75,9.37-4.75,11.08,0,.78,.36,1.17,1.07,1.17s1.67-.7,2.81-2.11c.82-.88,4.22-5.23,10.22-13.04,.91-2.04,2.22-4.31,3.95-6.81,.63-.97,1.17-1.45,1.61-1.45s.66,.2,.66,.6c0,1.07-1.69,3.85-5.07,8.34-2.28,6.45-3.42,10.72-3.42,12.83,0,1.07,.34,1.61,1.01,1.61,.97,0,2.29-.86,3.97-2.57,1.68-1.71,3.62-4.19,5.82-7.43,2.2-3.24,3.95-6.83,5.25-10.76-.25-.44-.38-.95-.38-1.51,0-1.16,.49-1.74,1.48-1.74,.74,0,1.1,.38,1.1,1.14-.02,.65-.15,1.25-.38,1.8,.23,.08,.47,.13,.72,.13,.65,0,1.34-.27,2.05-.82,.17-.1,.29-.16,.38-.16,.13,0,.26,.08,.39,.24,.14,.16,.21,.33,.21,.52,0,.23-.19,.45-.57,.66-.86,.48-1.69,.73-2.49,.73-.55,0-1.02-.07-1.42-.22-1.56,4.16-3.43,7.86-5.63,11.08-2.2,3.22-4.21,5.73-6.04,7.54-1.83,1.81-3.4,2.71-4.7,2.71-1.39,0-2.08-.95-2.08-2.84s.79-5.22,2.37-9.95c-4.52,5.92-7.19,9.31-8,10.16-1.49,1.75-2.77,2.63-3.84,2.63Z"/>
        <path class="cls-1" d="M182.79,44.29c.08-.06,.19-.09,.32-.09,.1,0,.26,.09,.46,.28s.3,.35,.3,.47c0,.11-.05,.2-.16,.28-3.91,3.22-7.44,4.83-10.57,4.83-1.22,0-2.18-.28-2.89-.85-.7-.57-1.06-1.41-1.06-2.52,0-.77,.14-1.54,.41-2.32-.37,.32-.77,.64-1.18,.97-.18,.13-.33,.19-.43,.19-.14,0-.29-.09-.45-.28-.16-.19-.24-.34-.24-.47,0-.14,.11-.3,.32-.46,1.3-1.01,2.99-2.32,5.05-3.94,.1-.08,.21-.13,.32-.13s.25,.1,.43,.3,.27,.36,.27,.49c0,.08-.06,.18-.19,.28-1.03,1.01-1.78,1.94-2.26,2.79-.47,.85-.71,1.7-.71,2.54,0,.76,.21,1.3,.63,1.64,.42,.34,1.07,.51,1.96,.51,2.82,0,6.05-1.5,9.69-4.51Zm.92-11.71c.17,0,.28,.1,.33,.28s.08,.35,.08,.47-.09,.22-.25,.28c-2.61,.93-5.29,2.72-8.05,5.4-.13,.11-.25,.16-.38,.16s-.26-.1-.41-.3-.22-.37-.22-.52c0-.1,.06-.21,.19-.32,2.34-2.17,4.23-3.62,5.68-4.35,1.45-.74,2.46-1.1,3.03-1.1Z"/>
        <path class="cls-1" d="M187.41,42.25c-1.77,1.41-3.06,2.44-3.88,3.09-.19,.13-.33,.19-.43,.19-.14,0-.29-.09-.45-.28-.16-.19-.24-.34-.24-.47,0-.14,.11-.3,.32-.46,1.14-.88,3.15-2.48,6.03-4.8,4.69-8.86,8.14-13.28,10.35-13.28,.99,0,1.48,.43,1.48,1.29,0,1.56-3.45,5.79-10.35,12.68-1.83,2.76-2.75,4.88-2.75,6.37,0,.55,.18,1.02,.55,1.4,.37,.39,1.06,.58,2.07,.58,2.69,0,5.71-1.43,9.06-4.29,.08-.06,.19-.09,.32-.09,.1,0,.26,.09,.46,.28,.2,.19,.3,.35,.3,.47,0,.11-.05,.2-.16,.28-3.72,3.13-7.05,4.7-9.97,4.7-2.61,0-3.91-1.08-3.91-3.25,0-1.18,.4-2.66,1.21-4.44Zm4.47-5.37c3.24-3.49,5.29-5.84,6.14-7.05,.85-1.21,1.28-1.91,1.28-2.1,0-.15-.07-.22-.22-.22-.29,0-.83,.37-1.61,1.12-.78,.75-1.76,2.01-2.94,3.8s-2.06,3.27-2.65,4.45Z"/>
        <path class="cls-1" d="M203.82,42.25c-1.77,1.41-3.06,2.44-3.88,3.09-.19,.13-.33,.19-.43,.19-.14,0-.29-.09-.45-.28-.16-.19-.24-.34-.24-.47,0-.14,.11-.3,.32-.46,1.14-.88,3.15-2.48,6.03-4.8,3.7-7.66,6.55-11.49,8.55-11.49,.99,0,1.48,.43,1.48,1.29,0,.72-.73,2.04-2.19,3.96-1.46,1.92-3.8,4.48-7.02,7.65-1.18,2.27-1.77,4.16-1.77,5.65,0,.67,.18,1.23,.55,1.66,.37,.43,.95,.65,1.75,.65,2.48,0,5.61-1.54,9.37-4.61,.08-.06,.19-.09,.31-.09,.1,0,.26,.09,.46,.28s.3,.35,.3,.47c0,.11-.05,.2-.16,.28-4.14,3.34-7.57,5.02-10.29,5.02-1.14,0-2.02-.35-2.65-1.06s-.95-1.54-.95-2.51c0-1.18,.3-2.66,.9-4.44Zm3.55-4.52c1.87-2,3.43-3.79,4.67-5.38,1.24-1.59,1.86-2.53,1.86-2.82,0-.15-.07-.22-.22-.22-.34,0-1.02,.59-2.05,1.77-1.03,1.18-2.45,3.4-4.26,6.66Z"/>
        <path class="cls-1" d="M227.66,47.04c-1.39,0-2.49-.6-3.31-1.8-.67,.88-1.54,1.74-2.59,2.56-1.05,.82-2.13,1.23-3.25,1.23-.93,0-1.65-.32-2.18-.95-.53-.63-.79-1.38-.79-2.24,0-1.79,.74-3.36,2.22-4.7,1.48-1.35,3.29-2.04,5.41-2.08,.19,0,.31,.12,.38,.35,.02,.17,.03,.35,.03,.54,0,.21-.08,.33-.25,.35-2.04,.17-3.63,.82-4.78,1.94-1.15,1.13-1.72,2.32-1.72,3.58,0,.55,.14,1.01,.43,1.39,.29,.38,.68,.57,1.18,.57,.8,0,1.7-.37,2.7-1.12,1-.75,1.76-1.57,2.29-2.48,.42-.74,.78-1.62,1.07-2.65,.06-.17,.15-.25,.25-.25,.19,0,.41,.09,.66,.27,.25,.18,.38,.36,.38,.55,0,.25-.22,.9-.66,1.96,.59,1.12,1.43,1.67,2.53,1.67s2.23-.47,3.41-1.42c.08-.06,.19-.09,.31-.09,.1,0,.26,.09,.46,.28s.3,.35,.3,.47c0,.11-.05,.2-.16,.28-1.51,1.2-2.96,1.8-4.32,1.8Z"/>
        <path class="cls-1" d="M249.5,43.41c.13-.61,.25-1.11,.36-1.5,.11-.39,.37-.58,.77-.58,.71,0,1.07,.16,1.07,.47-.04,.19-.16,.44-.35,.76-.19,.32-.35,.64-.47,.98,0,.63,.25,1.19,.74,1.69,.49,.49,1.24,.74,2.22,.74,1.2,0,2.53-.56,4.01-1.67,.08-.06,.19-.09,.31-.09,.1,0,.26,.09,.46,.28s.3,.35,.3,.47c0,.11-.05,.2-.16,.28-1.7,1.35-3.37,2.02-4.99,2.02-1.14,0-2.11-.32-2.93-.95-.4-.29-.69-.66-.88-1.1-1.12,1.94-2.02,3.17-2.71,3.69-.86,.65-1.55,.98-2.05,.98-1.45,0-2.19-.76-2.21-2.27,.02-1.3,.4-3.08,1.14-5.33l-.06-.03c-1.77,2.88-3.27,4.95-4.51,6.22-.93,.88-1.69,1.33-2.3,1.33-1.28,0-1.92-.68-1.92-2.05,0-1.18,.51-3.35,1.53-6.49-2.06,1.7-3.75,3.07-5.05,4.1-.19,.13-.33,.19-.43,.19-.14,0-.29-.09-.45-.28-.16-.19-.24-.34-.24-.47,0-.14,.11-.3,.32-.46,1.33-1.03,2.63-2.02,3.9-2.98,1.27-.96,1.98-1.44,2.13-1.44,.21,0,.46,.05,.76,.14,.29,.09,.44,.23,.44,.39,0,.19-.27,1.24-.81,3.14-.54,1.9-.8,3.25-.8,4.02,0,.57,.21,.85,.63,.85,.38,0,.82-.26,1.33-.79,1.53-1.79,2.76-3.38,3.66-4.78,.9-1.4,1.49-2.28,1.77-2.63,.15-.19,.34-.28,.57-.28,.19,0,.43,.07,.71,.22,.28,.15,.43,.29,.43,.44,0,.17-.04,.44-.11,.8-.08,.37-.31,1.25-.69,2.63-.39,1.39-.58,2.56-.58,3.5,0,.63,.24,.95,.73,.95,.44,0,1.07-.37,1.89-1.1,.74-.67,1.59-2.01,2.56-4.01Z"/>
        <path class="cls-1" d="M274.57,46.91c-.61,1-1.07,1.75-1.37,2.23-.06,.13-.19,.2-.37,.2-.17,0-.32-.07-.47-.2-.15-.14-.22-.28-.22-.43s.04-.28,.13-.41c.63-1.03,1.43-2.33,2.4-3.91-1.14-.02-2.22-.13-3.25-.32-.19-.06-.29-.17-.29-.32v-.73c0-.19,.13-.28,.38-.28,1.45,.23,2.76,.37,3.91,.41,1.06-1.74,2.2-3.59,3.41-5.56,3.98-6.49,5.97-10.33,5.96-11.51,0-.42-.15-.76-.44-1.01s-.61-.38-.95-.38c-3.32,0-8.35,2.85-15.08,8.55-.17,.13-.29,.19-.38,.19-.13,0-.27-.06-.43-.19s-.24-.28-.24-.47c0-.21,.08-.39,.25-.54,1.85-1.75,4.4-3.64,7.65-5.7s5.98-3.08,8.19-3.08c1.81,.02,2.71,.87,2.71,2.56-.02,1.38-1.47,4.43-4.35,9.15,5.95-6.92,10.69-10.38,14.23-10.38,1.28,0,2.37,.38,3.27,1.15,.89,.77,1.34,1.74,1.34,2.92,0,2.97-2.39,6.27-7.18,9.92-4.78,3.65-10.03,5.57-15.74,5.76-.55,0-1.09-.02-1.61-.06-.37,.61-.87,1.42-1.48,2.42Zm2.38-3.66c5.7,0,10.86-1.77,15.48-5.3,4.62-3.53,6.93-6.55,6.93-9.06,0-.8-.33-1.46-.99-1.99s-1.45-.79-2.35-.79c-2.46,0-5.51,1.83-9.15,5.49-3.64,3.66-6.94,7.54-9.91,11.64Z"/>
        <path class="cls-1" d="M312.42,44.29c.08-.06,.19-.09,.32-.09,.1,0,.26,.09,.46,.28s.3,.35,.3,.47c0,.11-.05,.2-.16,.28-1.58,1.16-3.18,1.74-4.8,1.74-1.33,0-2.31-.32-2.95-.96-.64-.64-.96-1.43-.96-2.35,0-.26,.12-.69,.36-1.29-1.45,.9-3.07,2.1-4.83,3.59-.78,1.98-1.33,2.98-1.64,2.98-.19,0-.37-.06-.55-.17-.18-.12-.27-.25-.27-.39,0-.13,.04-.28,.13-.47,.99-2.02,1.63-4.09,1.92-6.22-.15,0-1.83,1.23-5.05,3.69-.19,.13-.34,.19-.44,.19-.15,0-.3-.1-.46-.28s-.24-.35-.24-.47c0-.15,.1-.3,.32-.47l4.92-3.69c.42-.32,.74-.47,.95-.47s.48,.08,.8,.25c.32,.17,.49,.34,.49,.5-.02,.86-.16,1.79-.41,2.78,1.83-1.26,3.16-2.17,3.99-2.74,.83-.57,1.32-.86,1.46-.86,.17,0,.32,.12,.46,.36,.14,.24,.21,.45,.21,.62-.53,.82-.79,1.68-.79,2.59,0,.72,.24,1.24,.71,1.56,.47,.33,1.08,.49,1.81,.49,1.43,0,2.75-.47,3.95-1.42Z"/>
        <path class="cls-1" d="M317.09,50.29c-1.49,0-2.66-.39-3.49-1.17-.83-.78-1.25-1.83-1.25-3.16,0-1.72,.78-3.18,2.35-4.37,1.57-1.19,3.11-1.78,4.62-1.78,.95,0,1.42,.47,1.42,1.42,0,1.14-.68,2.26-2.05,3.38-1.37,1.12-2.95,1.95-4.73,2.49,.17,.53,.49,.98,.98,1.36,.48,.38,1.19,.57,2.11,.57,2.02,0,5.13-1.58,9.34-4.73,.08-.06,.19-.09,.32-.09,.1,0,.26,.09,.46,.28s.3,.35,.3,.47c0,.11-.05,.2-.16,.28-4.48,3.37-7.89,5.05-10.22,5.05Zm2.11-9.25c-1.03,0-2.2,.49-3.52,1.48-1.32,.99-1.97,2.09-1.97,3.31,1.79-.61,3.19-1.38,4.21-2.32,1.02-.94,1.53-1.67,1.53-2.19,0-.19-.09-.28-.25-.28Z"/>
        <path class="cls-1" d="M329.4,43.52c-.69,.59-1.43,1.21-2.23,1.86-.19,.13-.34,.19-.45,.19-.15,0-.31-.1-.47-.29s-.24-.35-.24-.48c0-.15,.1-.31,.31-.48,1.31-1.05,2.51-2.02,3.59-2.9,.43-.55,1.02-1.08,1.78-1.59s1.59-.77,2.5-.77c1.51,0,2.27,.69,2.27,2.08,0,.4-.11,.78-.33,1.15-.22,.37-.39,.55-.52,.55-.15,0-.33-.06-.54-.19-.21-.13-.32-.29-.32-.5,.27-.42,.41-.77,.41-1.04,0-.53-.33-.79-.98-.79-.9,0-1.72,.36-2.45,1.08s-1.09,1.5-1.09,2.35c0,.93,.62,2.38,1.85,4.33,1.01-.34,2.03-.83,3.07-1.46,1.04-.63,2.18-1.4,3.41-2.32,.08-.06,.19-.1,.31-.1,.1,0,.26,.1,.46,.28,.2,.19,.3,.35,.3,.47,0,.11-.05,.2-.16,.29-1.22,.91-2.36,1.67-3.42,2.31-1.06,.63-2.13,1.14-3.2,1.52,.4,.61,.6,1.22,.6,1.82,0,.99-.28,1.79-.84,2.4-.56,.61-1.47,.92-2.73,.92-1.07,0-1.99-.22-2.75-.65s-1.14-1.05-1.14-1.85c0-.84,.49-1.49,1.48-1.94,.99-.45,2.11-.88,3.37-1.3-1.26-1.86-1.88-3.38-1.88-4.57v-.39Zm-1.64,8.16c0,.29,.22,.57,.66,.82,.44,.25,1.1,.38,1.99,.38,1.39,0,2.08-.64,2.08-1.93,0-.49-.16-.96-.49-1.43-1.22,.43-2.23,.78-3.03,1.07-.81,.28-1.21,.65-1.21,1.09Z"/>
        <path class="cls-1" d="M346.81,49.94c0,.82-.33,1.48-.98,1.99-.69,.55-1.74,.82-3.12,.82-.99,0-1.75-.16-2.27-.47s-.79-.76-.79-1.33c0-.63,.43-1.21,1.29-1.74,.17-.08,.33-.13,.47-.13,.13,0,.26,.13,.41,.38s.22,.47,.22,.66c-.72,.27-1.07,.57-1.07,.88,0,.29,.55,.44,1.64,.44,1.98,0,2.97-.5,2.97-1.51,0-.57-.49-1.44-1.48-2.6-.99-1.17-1.48-2.19-1.48-3.08,0-.44,.03-.8,.1-1.07-.8,.55-1.82,1.3-3.05,2.25-.16,.11-.32,.16-.48,.16-.14,0-.28-.11-.42-.33-.14-.22-.21-.39-.21-.54,0-.16,.06-.3,.19-.42,1.56-1.09,3.33-2.29,5.33-3.6,.39-.29,.97-.59,1.75-.89,.78-.3,1.52-.45,2.23-.45,1.3,0,1.96,.58,1.96,1.74,0,.46-.1,.91-.31,1.34s-.36,.65-.44,.65c-.17,0-.37-.06-.6-.17-.23-.11-.35-.27-.35-.46,.27-.4,.41-.84,.41-1.33,0-.34-.26-.5-.79-.5-1.24,0-2.45,.6-3.63,1.8-.27,.55-.41,1.08-.41,1.61,0,.82,.49,1.84,1.48,3.06,.55,.65,.93,1.18,1.14,1.59,.21,.41,.31,.83,.31,1.25Z"/>
      </g>
      <g>
        <path class="cls-1" d="M129.81,36.78c-.13,0-.28-.03-.41-.09-.13-.04-.25-.13-.35-.22-.19-.2-.3-.48-.3-.76,0-.14,.03-.28,.07-.41,.06-.13,.15-.26,.23-.35,.1-.1,.22-.17,.35-.23,.26-.1,.55-.12,.81,0,.13,.06,.25,.13,.35,.23,.1,.09,.17,.22,.23,.35s.09,.26,.09,.41c0,.28-.12,.55-.32,.76-.1,.09-.22,.17-.35,.22-.13,.06-.26,.09-.41,.09Z"/>
        <path class="cls-1" d="M107.99,42.26c-.58-.04-1.03-.55-.99-1.13h0c.04-.6,.55-1.03,1.15-.99h0c.58,.04,1.02,.55,.97,1.15h0c-.03,.55-.51,.97-1.06,.97h-.07Zm6.64-1c-.07-.58,.33-1.12,.93-1.19h0c.58-.09,1.12,.33,1.19,.91h0c.07,.58-.33,1.12-.92,1.19h0c-.06,.01-.1,.01-.14,.01h0c-.52,0-.99-.39-1.06-.93Zm7.45-1.64c-.19-.57,.1-1.18,.65-1.36h0c.55-.19,1.16,.09,1.35,.65h0c.2,.55-.09,1.16-.64,1.35h0c-.12,.04-.25,.07-.36,.07h0c-.44,0-.84-.28-1-.71Z"/>
        <path class="cls-1" d="M100.48,41.28c-.28,0-.55-.12-.76-.3-.19-.2-.3-.48-.3-.76,0-.15,.03-.28,.09-.41,.04-.13,.13-.25,.22-.35,.3-.29,.77-.39,1.16-.23,.13,.06,.25,.13,.35,.23,.1,.1,.17,.22,.23,.35,.06,.13,.09,.26,.09,.41,0,.28-.12,.55-.32,.76-.1,.1-.22,.17-.35,.23-.13,.04-.26,.07-.41,.07Z"/>
      </g>
      <g>
        <path class="cls-1" d="M154.92,72.9c-.07,0-.11-.02-.15-.06-.04-.04-.06-.09-.06-.15v-5.75c0-.06,.02-.12,.06-.15,.03-.04,.08-.06,.15-.06h3.63c.07,0,.12,.02,.15,.06,.03,.04,.05,.09,.05,.15v.33c0,.07-.02,.12-.05,.15-.03,.04-.09,.05-.15,.05h-2.99v1.93h2.8c.07,0,.11,.02,.15,.06,.03,.04,.05,.09,.05,.16v.33c0,.06-.02,.11-.05,.14-.04,.04-.09,.06-.15,.06h-2.8v2h3.06c.07,0,.11,.02,.15,.05,.04,.04,.06,.09,.06,.15v.34c0,.06-.02,.11-.06,.15-.03,.04-.08,.06-.15,.06h-3.71Z"/>
        <path class="cls-1" d="M163.46,72.99c-.33,0-.61-.04-.84-.12-.23-.08-.43-.18-.57-.3-.15-.12-.26-.23-.33-.35-.07-.12-.11-.21-.12-.28,0-.07,.02-.12,.06-.15,.05-.04,.09-.05,.14-.05h.39s.06,0,.08,.01,.05,.03,.08,.07c.08,.08,.16,.17,.25,.25,.09,.08,.21,.15,.35,.2s.31,.08,.52,.08c.3,0,.54-.06,.74-.17,.2-.11,.29-.28,.29-.51,0-.15-.04-.26-.12-.35s-.22-.17-.42-.24c-.2-.07-.48-.14-.83-.22-.35-.08-.63-.18-.84-.3-.2-.12-.35-.26-.44-.43-.09-.17-.13-.36-.13-.57s.07-.43,.19-.63c.13-.2,.32-.37,.57-.5,.25-.13,.56-.19,.94-.19,.31,0,.57,.04,.79,.12,.22,.08,.4,.17,.54,.29,.14,.11,.24,.23,.32,.34,.07,.11,.11,.2,.11,.28,0,.06-.01,.11-.05,.14-.04,.04-.09,.06-.14,.06h-.37s-.07,0-.1-.03c-.03-.02-.05-.04-.08-.06-.06-.08-.13-.15-.21-.23-.08-.08-.18-.14-.31-.19-.13-.05-.29-.08-.5-.08-.29,0-.51,.06-.66,.19-.15,.12-.22,.28-.22,.47,0,.11,.03,.21,.1,.3s.19,.17,.37,.24c.18,.07,.45,.15,.81,.23,.39,.08,.69,.18,.92,.31s.38,.28,.48,.45,.14,.37,.14,.59c0,.25-.07,.47-.22,.68-.14,.2-.35,.37-.63,.49-.28,.12-.62,.18-1.03,.18Z"/>
        <path class="cls-1" d="M170.09,72.9c-.33,0-.6-.06-.8-.19-.2-.13-.35-.3-.45-.54-.09-.23-.14-.51-.14-.82v-2.32h-.69c-.06,0-.11-.02-.14-.06s-.06-.09-.06-.14v-.3c0-.06,.02-.11,.06-.14,.04-.04,.09-.06,.14-.06h.69v-1.47c0-.06,.02-.11,.06-.14,.04-.04,.09-.06,.14-.06h.41c.06,0,.11,.02,.14,.06,.04,.04,.06,.09,.06,.14v1.47h1.09c.06,0,.11,.02,.14,.06,.04,.04,.06,.09,.06,.14v.3c0,.06-.02,.11-.06,.14s-.09,.06-.14,.06h-1.09v2.26c0,.28,.04,.49,.14,.65,.09,.16,.26,.24,.5,.24h.54c.06,0,.11,.02,.14,.06s.06,.09,.06,.14v.32c0,.06-.02,.11-.06,.15s-.09,.06-.14,.06h-.61Z"/>
        <path class="cls-1" d="M173.82,72.9c-.06,0-.11-.02-.14-.06s-.06-.09-.06-.15v-.63c0-.06,.02-.11,.06-.14s.09-.06,.14-.06h.63c.06,0,.11,.02,.14,.06s.06,.09,.06,.14v.63c0,.06-.02,.11-.06,.15s-.09,.06-.14,.06h-.63Z"/>
        <path class="cls-1" d="M181.91,72.9c-.06,0-.11-.02-.14-.06s-.06-.09-.06-.15v-.28c0-.05,.01-.11,.04-.18,.03-.07,.09-.14,.18-.21l1.87-1.87c.3-.25,.53-.47,.71-.65,.17-.18,.3-.35,.37-.52s.11-.33,.11-.51c0-.33-.09-.6-.28-.8-.19-.2-.47-.29-.84-.29-.23,0-.44,.05-.61,.14s-.3,.23-.4,.4-.16,.36-.19,.57c-.01,.08-.04,.13-.09,.16-.05,.03-.1,.04-.14,.04h-.46c-.05,0-.1-.02-.13-.05s-.05-.07-.05-.12c0-.22,.05-.45,.14-.67,.09-.23,.22-.43,.39-.61,.18-.18,.39-.33,.64-.44,.25-.12,.55-.17,.89-.17,.47,0,.84,.08,1.14,.25s.52,.39,.66,.66c.14,.28,.21,.58,.21,.91,0,.26-.04,.49-.13,.71-.09,.21-.22,.42-.39,.62-.17,.2-.37,.41-.62,.62l-1.69,1.72h2.75c.07,0,.12,.02,.16,.05s.06,.08,.06,.15v.36c0,.06-.02,.11-.06,.15s-.09,.06-.16,.06h-3.88Z"/>
        <path class="cls-1" d="M191.17,72.99c-.4,0-.75-.06-1.03-.19s-.51-.3-.68-.52c-.18-.22-.3-.48-.38-.77-.08-.29-.12-.59-.13-.91,0-.16-.01-.33-.01-.5,0-.18,0-.35,0-.53,0-.18,0-.35,.01-.52,0-.32,.05-.63,.13-.92,.09-.29,.21-.55,.39-.76,.17-.22,.4-.39,.68-.52,.28-.13,.62-.19,1.02-.19s.75,.06,1.03,.19,.51,.3,.68,.52c.18,.22,.31,.48,.39,.76,.08,.29,.13,.6,.13,.92,0,.17,.01,.34,.01,.52,0,.18,0,.36,0,.53,0,.18,0,.34-.01,.5,0,.32-.05,.63-.13,.91-.09,.29-.22,.54-.39,.77-.17,.22-.4,.4-.68,.52s-.62,.19-1.03,.19Zm0-.75c.46,0,.8-.15,1.02-.45,.22-.3,.33-.71,.34-1.24,.01-.17,.02-.34,.02-.5v-.48c0-.16,0-.32-.02-.48,0-.51-.12-.92-.34-1.23s-.56-.46-1.02-.46-.79,.15-1.01,.46c-.22,.31-.33,.72-.34,1.23,0,.16,0,.32,0,.48,0,.16,0,.32,0,.48,0,.16,0,.33,0,.5,.01,.52,.13,.94,.35,1.24,.22,.3,.56,.45,1,.45Z"/>
        <path class="cls-1" d="M196.54,72.9c-.06,0-.11-.02-.14-.06s-.06-.09-.06-.15v-.28c0-.05,.01-.11,.04-.18,.03-.07,.09-.14,.18-.21l1.87-1.87c.3-.25,.53-.47,.71-.65,.17-.18,.3-.35,.37-.52s.11-.33,.11-.51c0-.33-.09-.6-.28-.8-.19-.2-.47-.29-.84-.29-.23,0-.44,.05-.61,.14s-.3,.23-.4,.4-.16,.36-.19,.57c-.01,.08-.04,.13-.09,.16-.05,.03-.1,.04-.14,.04h-.46c-.05,0-.1-.02-.13-.05s-.05-.07-.05-.12c0-.22,.05-.45,.14-.67,.09-.23,.22-.43,.39-.61,.18-.18,.39-.33,.64-.44,.25-.12,.55-.17,.89-.17,.47,0,.84,.08,1.14,.25s.52,.39,.66,.66c.14,.28,.21,.58,.21,.91,0,.26-.04,.49-.13,.71-.09,.21-.22,.42-.39,.62-.17,.2-.37,.41-.62,.62l-1.69,1.72h2.75c.07,0,.12,.02,.16,.05s.06,.08,.06,.15v.36c0,.06-.02,.11-.06,.15s-.09,.06-.16,.06h-3.88Z"/>
        <path class="cls-1" d="M206.45,72.9c-.06,0-.11-.02-.14-.06-.04-.04-.06-.09-.06-.15v-1.27h-2.85c-.06,0-.11-.02-.14-.06s-.06-.09-.06-.14v-.35s0-.06,.02-.11c.01-.05,.04-.1,.07-.16l2.64-3.72c.07-.1,.18-.15,.33-.15h.63c.06,0,.11,.02,.14,.06,.04,.04,.06,.09,.06,.14v3.72h.79c.07,0,.12,.02,.16,.06s.06,.09,.06,.14v.36c0,.06-.02,.11-.06,.14s-.09,.06-.14,.06h-.8v1.27c0,.06-.02,.11-.06,.15s-.09,.06-.14,.06h-.44Zm-2.32-2.22h2.12v-3.02l-2.12,3.02Z"/>
      </g>
      <g>
        <path class="cls-1" d="M143.42,70.88c-.13,0-.28-.03-.41-.09-.13-.04-.25-.13-.35-.22-.19-.2-.3-.48-.3-.76,0-.14,.03-.28,.07-.41,.06-.13,.15-.26,.23-.35,.1-.1,.22-.17,.35-.23,.26-.1,.55-.12,.81,0,.13,.06,.25,.13,.35,.23,.1,.09,.17,.22,.23,.35s.09,.26,.09,.41c0,.28-.12,.55-.32,.76-.1,.09-.22,.17-.35,.22-.13,.06-.26,.09-.41,.09Z"/>
        <path class="cls-1" d="M219.39,70.88c-.13,0-.28-.03-.41-.09-.13-.04-.25-.13-.35-.22-.19-.2-.3-.48-.3-.76,0-.14,.03-.28,.07-.41,.06-.13,.15-.26,.23-.35,.1-.1,.22-.17,.35-.23,.26-.1,.55-.12,.81,0,.13,.06,.25,.13,.35,.23,.1,.09,.17,.22,.23,.35s.09,.26,.09,.41c0,.28-.12,.55-.32,.76-.1,.09-.22,.17-.35,.22-.13,.06-.26,.09-.41,.09Z"/>
      </g>
    </g>
  </g>
</svg>